<svg xmlns="http://www.w3.org/2000/svg" xmlns:xlink="http://www.w3.org/1999/xlink" version="1.1" width="1480" height="605.5"><g id="Bank system App Diagram"><g id="Bank system"><rect width="264" height="240" rx="8" ry="8" fill-opacity="0.1" fill="#ffffff" stroke-opacity="1" stroke-width="2" stroke="#4c5152" opacity="1" x="904" y="32"></rect><text font-family="IBM Plex Sans Medium, Arial, sans-serif" font-size="15" font-weight="500" fill="#ffffff" opacity="1" x="920" y="63.375"><tspan dy="0" x="920">Bank system</tspan></text><g id="System" opacity="1"><text font-family="Courier New, monospace" font-size="12" text-anchor="middle" fill="#adb3b3" x="1036" y="260.6552734375"><tspan dy="0" x="1036">System</tspan></text></g></g><g id="Connection"><polyline points="216,160 251.23,159.82999999999998 256.26,159.38 257.17,158.73000000000002 254.82999999999998,157.26999999999998 255.74,156.63 260.77,156.17000000000002 296,156" fill="none" stroke-width="1" stroke="#adb3b3" opacity="1"></polyline></g><g id="Sends data to"><polyline points="464,156 584,156" fill="none" stroke-width="1" stroke="#adb3b3" opacity="1"></polyline></g><g id="Sends data to"><rect width="99.836" height="22.2" x="474.082" y="144.9" rx="4" ry="4" fill-opacity="0.8" fill="#323435" stroke-opacity="1" stroke-width="1" stroke="#434647" opacity="0.8"></rect><g opacity="1" fill="#e5e7e8"><text font-family="IBM Plex Sans Medium, Arial, sans-serif" font-size="14" text-anchor="middle" x="524" y="161.24999999999997"><tspan dy="0" x="524">Sends data to</tspan></text></g></g><g id="Sends data to"><polyline points="776,156 840.01,156.63 865.18,158.95999999999998 881.47,159.7 936,160" fill="none" stroke-width="1" stroke="#adb3b3" opacity="1"></polyline></g><g id="Sends data to"><rect width="99.836" height="22.2" x="806.0747350482949" y="147.0095301018088" rx="4" ry="4" fill-opacity="0.8" fill="#323435" stroke-opacity="1" stroke-width="1" stroke="#434647" opacity="0.8"></rect><g opacity="1" fill="#e5e7e8"><text font-family="IBM Plex Sans Medium, Arial, sans-serif" font-size="14" text-anchor="middle" x="855.9927350482949" y="163.35953010180876"><tspan dy="0" x="855.9927350482949">Sends data to</tspan></text></g></g><g id="Sends data to"><polyline points="1136,160 1177.92,160.37 1190.77,161.39 1199.6599999999999,162.92000000000002 1205.72,164.81 1218.28,171.19 1224.3400000000001,173.07999999999998 1233.23,174.61 1246.08,175.63 1288,176" fill="none" stroke-width="1" stroke="#adb3b3" opacity="1"></polyline></g><g id="Sends data to"><rect width="99.836" height="22.2" x="1162.082" y="156.9" rx="4" ry="4" fill-opacity="0.8" fill="#323435" stroke-opacity="1" stroke-width="1" stroke="#434647" opacity="0.8"></rect><g opacity="1" fill="#e5e7e8"><text font-family="IBM Plex Sans Medium, Arial, sans-serif" font-size="14" text-anchor="middle" x="1212" y="173.24999999999997"><tspan dy="0" x="1212">Sends data to</tspan></text></g></g><g id="Sends data to"><polyline points="1352,232 1352.11,273.26 1353.51,310.52 1355.11,326.54999999999995 1360.89,361.45000000000005 1363.11,387.80999999999995 1363.89,414.74 1364,456" fill="none" stroke-width="1" stroke="#adb3b3" opacity="1"></polyline></g><g id="Sends data to"><rect width="99.836" height="22.2" x="1308.0818910335615" y="332.8993420538574" rx="4" ry="4" fill-opacity="0.8" fill="#323435" stroke-opacity="1" stroke-width="1" stroke="#434647" opacity="0.8"></rect><g opacity="1" fill="#e5e7e8"><text font-family="IBM Plex Sans Medium, Arial, sans-serif" font-size="14" text-anchor="middle" x="1357.9998910335614" y="349.24934205385745"><tspan dy="0" x="1357.9998910335614">Sends data to</tspan></text></g></g><a href="https://app.icepanel.io/landscapes/pMzFyeYjGnWRGy8yUsah/versions/latest/model/objects?object=FgZKN9J8uB&amp;focus=FgZKN9J8uB" id="Web App" target="_blank"><rect width="184" height="112" rx="8" ry="8" fill-opacity="0.8" fill="#1f2121" stroke-opacity="1" stroke-width="1" stroke="#434647" opacity="1" x="32" y="104"></rect><text font-family="IBM Plex Sans Medium, Arial, sans-serif" font-size="21" font-weight="500" text-anchor="middle" fill="#ffffff" opacity="1" x="124" y="149.875"><tspan dy="0" x="124">Web App</tspan></text><g opacity="1"><text font-family="IBM Plex Sans, Arial, sans-serif" font-size="10" text-anchor="middle" fill="#adb3b3" x="124" y="163.75"><tspan dy="0" x="124">The user interface where the</tspan></text><text font-family="IBM Plex Sans, Arial, sans-serif" font-size="10" text-anchor="middle" fill="#adb3b3" x="124" y="175.75"><tspan dy="0" x="124">customer initiates a transfer or views</tspan></text><text font-family="IBM Plex Sans, Arial, sans-serif" font-size="10" text-anchor="middle" fill="#adb3b3" x="124" y="187.75"><tspan dy="0" x="124">their balance.</tspan></text></g><g id="System" opacity="1"><text font-family="Courier New, monospace" font-size="12" text-anchor="middle" fill="#adb3b3" x="124" y="204.6552734375"><tspan dy="0" x="124">System</tspan></text></g></a><a href="https://app.icepanel.io/landscapes/pMzFyeYjGnWRGy8yUsah/versions/latest/model/objects?object=4NWrpcS5ur&amp;focus=4NWrpcS5ur" id="API" target="_blank"><rect width="168" height="120" rx="8" ry="8" fill-opacity="0.8" fill="#1f2121" stroke-opacity="1" stroke-width="1" stroke="#434647" opacity="1" x="296" y="96"></rect><text font-family="IBM Plex Sans Medium, Arial, sans-serif" font-size="24" font-weight="500" text-anchor="middle" fill="#ffffff" opacity="1" x="379.99999999999994" y="145"><tspan dy="0" x="379.99999999999994">API</tspan></text><g opacity="1"><text font-family="IBM Plex Sans, Arial, sans-serif" font-size="10" text-anchor="middle" fill="#adb3b3" x="380.00000000000006" y="155.75"><tspan dy="0" x="380.00000000000006">The &quot;front door&quot; for all requests.</tspan></text><text font-family="IBM Plex Sans, Arial, sans-serif" font-size="10" text-anchor="middle" fill="#adb3b3" x="380.00000000000006" y="167.75"><tspan dy="0" x="380.00000000000006">It handles security, rate limiting,</tspan></text><text font-family="IBM Plex Sans, Arial, sans-serif" font-size="10" text-anchor="middle" fill="#adb3b3" x="380" y="179.75"><tspan dy="0" x="380">and routes traffic to the correct</tspan></text><text font-family="IBM Plex Sans, Arial, sans-serif" font-size="10" text-anchor="middle" fill="#adb3b3" x="380.00000000000006" y="191.75"><tspan dy="0" x="380.00000000000006">internal servic</tspan></text></g><g id="System" opacity="1"><text font-family="Courier New, monospace" font-size="12" text-anchor="middle" fill="#adb3b3" x="380" y="204.6552734375"><tspan dy="0" x="380">System</tspan></text></g></a><a href="https://app.icepanel.io/landscapes/pMzFyeYjGnWRGy8yUsah/versions/latest/model/objects?object=A1im1yBqt7&amp;focus=A1im1yBqt7" id="Gateway Client" target="_blank"><rect width="192" height="136" rx="8" ry="8" fill-opacity="0.8" fill="#1f2121" stroke-opacity="1" stroke-width="1" stroke="#434647" opacity="1" x="584" y="88"></rect><text font-family="IBM Plex Sans Medium, Arial, sans-serif" font-size="24" font-weight="500" text-anchor="middle" fill="#ffffff" opacity="1" x="680" y="160.99999999999997"><tspan dy="0" x="680">Gateway Client</tspan></text><g id="System" opacity="1"><text font-family="Courier New, monospace" font-size="12" text-anchor="middle" fill="#adb3b3" x="680" y="212.6552734375"><tspan dy="0" x="680">System</tspan></text></g></a><a href="https://app.icepanel.io/landscapes/pMzFyeYjGnWRGy8yUsah/versions/latest/model/objects?object=fC3BIDODNz&amp;focus=fC3BIDODNz" id="Core Banking System (CBS)" target="_blank"><rect width="128" height="112" rx="8" ry="8" fill-opacity="0.8" fill="#1f2121" stroke-opacity="1" stroke-width="1" stroke="#434647" opacity="1" x="1288" y="120"></rect><text font-family="IBM Plex Sans Medium, Arial, sans-serif" font-size="12" font-weight="500" text-anchor="middle" fill="#ffffff" opacity="1" x="1352" y="155.5"><tspan dy="0" x="1352">Core Banking</tspan></text><text font-family="IBM Plex Sans Medium, Arial, sans-serif" font-size="12" font-weight="500" text-anchor="middle" fill="#ffffff" opacity="1" x="1352" y="169.5"><tspan dy="0" x="1352">System (CBS)</tspan></text><g opacity="1"><text font-family="IBM Plex Sans, Arial, sans-serif" font-size="10" text-anchor="middle" fill="#adb3b3" x="1351.9999999999998" y="167.75"><tspan dy="0" x="1351.9999999999998">The central ledger. This</tspan></text><text font-family="IBM Plex Sans, Arial, sans-serif" font-size="10" text-anchor="middle" fill="#adb3b3" x="1351.9999999999998" y="179.75"><tspan dy="0" x="1351.9999999999998">is the &quot;source of truth&quot;</tspan></text><text font-family="IBM Plex Sans, Arial, sans-serif" font-size="10" text-anchor="middle" fill="#adb3b3" x="1352" y="191.75"><tspan dy="0" x="1352">that records every</tspan></text><text font-family="IBM Plex Sans, Arial, sans-serif" font-size="10" text-anchor="middle" fill="#adb3b3" x="1352" y="203.75"><tspan dy="0" x="1352">transaction and updates</tspan></text><text font-family="IBM Plex Sans, Arial, sans-serif" font-size="10" text-anchor="middle" fill="#adb3b3" x="1352" y="215.75"><tspan dy="0" x="1352">account balances</tspan></text></g><g id="System" opacity="1"><text font-family="Courier New, monospace" font-size="12" text-anchor="middle" fill="#adb3b3" x="1352" y="220.6552734375"><tspan dy="0" x="1352">System</tspan></text></g></a><a href="https://app.icepanel.io/landscapes/pMzFyeYjGnWRGy8yUsah/versions/latest/model/objects?object=ydl5NG3r7A&amp;focus=ydl5NG3r7A" id="Link" target="_blank"><path d="M1280 465C1280 453 1448 453 1448 465L1448 561Q1364 586 1280 561L1280 465Z " fill-opacity="0.8" fill="#1f2121" opacity="1"></path><path d="M1280 465C1280 453 1448 453 1448 465C1448 477 1280 477 1280 465Z " fill="#595f61" opacity="1"></path><path d="M1280 465C1280 453 1448 453 1448 465L1448 561Q1364 586 1280 561L1280 465Z " fill-opacity="0" stroke-width="1" stroke="#434647" opacity="1"></path><text font-family="IBM Plex Sans Medium, Arial, sans-serif" font-size="24" font-weight="500" text-anchor="middle" fill="#ffffff" opacity="1" x="1364" y="525"><tspan dy="0" x="1364">Bank databse</tspan></text><g id="Store" opacity="1"><text font-family="Courier New, monospace" font-size="12" text-anchor="middle" fill="#adb3b3" x="1364" y="562.6552734375"><tspan dy="0" x="1364">Store</tspan></text></g></a><a href="https://app.icepanel.io/landscapes/pMzFyeYjGnWRGy8yUsah/versions/latest/model/objects?object=K0M9uz5CRD&amp;focus=K0M9uz5CRD" id="Paymeny services" target="_blank"><rect width="200" height="128" rx="8" ry="8" fill-opacity="0.8" fill="#1f2121" stroke-opacity="1" stroke-width="1" stroke="#434647" opacity="1" x="936" y="96"></rect><text font-family="IBM Plex Sans Medium, Arial, sans-serif" font-size="24" font-weight="500" text-anchor="middle" fill="#ffffff" opacity="1" x="1036" y="152"><tspan dy="0" x="1036">Paymeny</tspan></text><text font-family="IBM Plex Sans Medium, Arial, sans-serif" font-size="24" font-weight="500" text-anchor="middle" fill="#ffffff" opacity="1" x="1036" y="177.99999999999997"><tspan dy="0" x="1036">services</tspan></text><g id="System" opacity="1"><text font-family="Courier New, monospace" font-size="12" text-anchor="middle" fill="#adb3b3" x="1036" y="212.6552734375"><tspan dy="0" x="1036">System</tspan></text></g></a><g id="Connection"><circle r="4" fill="#adb3b3" opacity="1" cx="296" cy="156"></circle><circle r="4" fill="#adb3b3" opacity="1" cx="216" cy="160"></circle></g><g id="Sends data to"><polygon points="576,83.99999999999997 568,99.99999999999997 584,99.99999999999997 576,83.99999999999997" fill="#adb3b3" opacity="1" transform="matrix(6.123233995736766e-17,1,-1,6.123233995736766e-17,668,-420)"></polygon><circle r="4" fill="#adb3b3" opacity="1" cx="464" cy="156"></circle></g><g id="Sends data to"><polygon points="927.8235895858611,87.78042524264538 919.8235895858611,103.78042524264536 935.8235895858611,103.78042524264536 927.8235895858611,87.78042524264538" fill="#adb3b3" opacity="1" transform="matrix(-0.005501475518626901,0.9999848667690516,-0.9999848667690516,-0.005501475518626901,1028.8834956049084,-767.3266267567136)"></polygon><circle r="4" fill="#adb3b3" opacity="1" cx="776" cy="156"></circle></g><g id="Sends data to"><polygon points="1279.7166334571625,103.64820671071192 1271.7166334571625,119.64820671071192 1287.7166334571625,119.64820671071192 1279.7166334571625,103.64820671071192" fill="#adb3b3" opacity="1" transform="matrix(-0.008825992093609425,0.9999610501732372,-0.9999610501732372,-0.008825992093609425,1402.93893851997,-1102.7519904630383)"></polygon><circle r="4" fill="#adb3b3" opacity="1" cx="1136" cy="160"></circle></g><g id="Sends data to"><polygon points="1300.064097983247,375.91482980424007 1292.064097983247,391.91482980424007 1308.064097983247,391.91482980424007 1300.064097983247,375.91482980424007" fill="#adb3b3" opacity="1" transform="matrix(-0.9999964461866679,0.002666010884159979,-0.002666010884159979,-0.9999964461866679,2665.0616708258976,828.4475088377773)"></polygon><circle r="4" fill="#adb3b3" opacity="1" cx="1352" cy="232"></circle></g></g></svg>