<svg xmlns="http://www.w3.org/2000/svg" xmlns:xlink="http://www.w3.org/1999/xlink" version="1.1" width="1120" height="511.73"><g id="Context Diagram"><g id="register"><polyline points="248,360 288.53,360.35 302.74,361.34000000000003 325.25,364.99 334.07000000000005,367.5 348.1,373.52 379.9000000000001,394.48 393.93000000000006,400.5 402.75,403.01 425.26,406.66 439.47,407.65 480,408" fill="none" stroke-width="1" stroke="#adb3b3" opacity="1"></polyline></g><g id="register"><rect width="61.532" height="22.2" x="333.23400000000004" y="372.9" rx="4" ry="4" fill-opacity="0.8" fill="#323435" stroke-opacity="1" stroke-width="1" stroke="#434647" opacity="0.8"></rect><g opacity="1" fill="#e5e7e8"><text font-family="IBM Plex Sans Medium, Arial, sans-serif" font-size="14" text-anchor="middle" x="364.00000000000006" y="389.25"><tspan dy="0" x="364.00000000000006">register</tspan></text></g></g><g id="Connection"><polyline points="480,440 445.20000000000005,440.23 411.45000000000005,443.39 376.3499999999999,449.33 282.69000000000005,469.86 250,476 219.98000000000002,479.47 201.87,479.73 193.48000000000002,479.11 178.20000000000005,476.16 171.38,473.75 165.13,470.65 159.5,466.82 154.51999999999998,462.22 150.22000000000003,456.81 146.62,450.53 143.76999999999998,443.36 141.70000000000005,435.24 140.42999999999995,426.14 140,416 140,392" fill="none" stroke-width="1" stroke="#adb3b3" opacity="1"></polyline></g><g id="payment"><polyline points="608,344 607.8900000000001,306.88 604.73,222.72 604.6700000000001,191.65 606,172.92000000000002 608.8900000000001,155.92000000000002 613.69,140.78 616.9300000000001,133.94 620.79,127.62 625.3199999999999,121.83 630.5699999999999,116.57 636.5799999999999,111.88 643.4000000000001,107.76 651.0799999999999,104.23 659.6600000000001,101.31 669.2,99.01 679.74,97.35 691.3199999999999,96.34 728,96" fill="none" stroke-width="1" stroke="#adb3b3" opacity="1"></polyline></g><g id="payment"><rect width="68.518" height="22.2" x="571.514092436366" y="165.01547268185308" rx="4" ry="4" fill-opacity="0.8" fill="#323435" stroke-opacity="1" stroke-width="1" stroke="#434647" opacity="0.8"></rect><g opacity="1" fill="#e5e7e8"><text font-family="IBM Plex Sans Medium, Arial, sans-serif" font-size="14" text-anchor="middle" x="605.773092436366" y="181.36547268185305"><tspan dy="0" x="605.773092436366">payment</tspan></text></g></g><g id="Update transactions"><polyline points="856,160 856,184 855.26,197.23000000000002 853.1199999999999,208.56 849.69,218.16 845.0799999999999,226.17000000000002 839.4100000000001,232.75 832.78,238.04000000000002 825.31,242.19 817.1099999999999,245.36 808.3,247.7 789.26,250.5 748.73,252.75 729.02,254.64 710.8900000000001,258.64 702.69,261.81 695.22,265.96000000000004 688.5899999999999,271.25 682.9200000000001,277.83000000000004 678.31,285.84000000000003 674.8800000000001,295.44 672.74,306.77 672,320 672,344" fill="none" stroke-width="1" stroke="#adb3b3" opacity="1"></polyline></g><g id="Update transactions"><rect width="141.766" height="22.2" x="693.1166027442487" y="240.8023166500232" rx="4" ry="4" fill-opacity="0.8" fill="#323435" stroke-opacity="1" stroke-width="1" stroke="#434647" opacity="0.8"></rect><g opacity="1" fill="#e5e7e8"><text font-family="IBM Plex Sans Medium, Arial, sans-serif" font-size="14" text-anchor="middle" x="763.9996027442487" y="257.1523166500232"><tspan dy="0" x="763.9996027442487">Update transactions</tspan></text></g></g><g id="access"><polyline points="944,408 736,408" fill="none" stroke-width="1" stroke="#adb3b3" opacity="1"></polyline></g><g id="access"><rect width="55.54" height="22.2" x="812.23" y="396.9" rx="4" ry="4" fill-opacity="0.8" fill="#323435" stroke-opacity="1" stroke-width="1" stroke="#434647" opacity="0.8"></rect><g opacity="1" fill="#e5e7e8"><text font-family="IBM Plex Sans Medium, Arial, sans-serif" font-size="14" text-anchor="middle" x="840" y="413.25"><tspan dy="0" x="840">access</tspan></text></g></g><a href="https://app.icepanel.io/landscapes/pMzFyeYjGnWRGy8yUsah/versions/latest/model/objects?object=9NCY7IgGqo&amp;focus=9NCY7IgGqo" id="Customer" target="_blank"><rect width="56" height="56" rx="8" ry="8" fill-opacity="0.8" fill="#1f2121" stroke-opacity="1" stroke-width="1" stroke="#434647" opacity="1" x="112" y="256"></rect><rect width="216" height="72" rx="8" ry="8" fill-opacity="0.8" fill="#1f2121" stroke-opacity="1" stroke-width="1" stroke="#434647" opacity="1" x="32" y="320"></rect><path d="M140 285.7142857142857C143.7875 285.7142857142857 146.85714285714286 282.64464285714286 146.85714285714286 278.8571428571429C146.85714285714286 275.06964285714287 143.7875 272 140 272C136.2125 272 133.14285714285714 275.06964285714287 133.14285714285714 278.8571428571429C133.14285714285714 282.64464285714286 136.2125 285.7142857142857 140 285.7142857142857ZM144.8 287.42857142857144L143.90535714285716 287.42857142857144C142.7160714285714 287.975 141.39285714285714 288.2857142857143 140 288.2857142857143C138.60714285714286 288.2857142857143 137.2892857142857 287.975 136.09464285714284 287.42857142857144L135.2 287.42857142857144C131.225 287.42857142857144 128 290.6535714285714 128 294.62857142857143L128 296.85714285714283C128 298.2767857142857 129.15178571428572 299.42857142857144 130.57142857142856 299.42857142857144L149.42857142857144 299.42857142857144C150.84821428571428 299.42857142857144 152 298.2767857142857 152 296.85714285714283L152 294.62857142857143C152 290.6535714285714 148.775 287.42857142857144 144.8 287.42857142857144Z " fill="#ffffff" opacity="1"></path><text font-family="IBM Plex Sans Medium, Arial, sans-serif" font-size="24" font-weight="500" text-anchor="middle" fill="#ffffff" opacity="1" x="140" y="356"><tspan dy="0" x="140">Customer</tspan></text><g id="Actor" opacity="1"><text font-family="Courier New, monospace" font-size="12" text-anchor="middle" fill="#adb3b3" x="140" y="380.6552734375"><tspan dy="0" x="140">Actor</tspan></text></g></a><a href="https://app.icepanel.io/landscapes/pMzFyeYjGnWRGy8yUsah/versions/latest/model/objects?object=IqZQdgeQdu&amp;focus=IqZQdgeQdu" id="Post office management" target="_blank"><rect width="256" height="128" rx="8" ry="8" fill-opacity="0.8" fill="#1f2121" stroke-opacity="1" stroke-width="1" stroke="#434647" opacity="1" x="480" y="344"></rect><text font-family="IBM Plex Sans Medium, Arial, sans-serif" font-size="24" font-weight="500" text-anchor="middle" fill="#ffffff" opacity="1" x="608" y="400"><tspan dy="0" x="608">Post office</tspan></text><text font-family="IBM Plex Sans Medium, Arial, sans-serif" font-size="24" font-weight="500" text-anchor="middle" fill="#ffffff" opacity="1" x="608" y="426"><tspan dy="0" x="608">management</tspan></text><g id="System" opacity="1"><text font-family="Courier New, monospace" font-size="12" text-anchor="middle" fill="#adb3b3" x="608" y="460.6552734375"><tspan dy="0" x="608">System</tspan></text></g></a><a href="https://app.icepanel.io/landscapes/pMzFyeYjGnWRGy8yUsah/versions/latest/model/objects?object=M5aLsmXHA6&amp;focus=M5aLsmXHA6" id="Bank system" target="_blank"><rect width="256" height="128" rx="8" ry="8" fill-opacity="0.8" fill="#1f2121" stroke-opacity="1" stroke-width="1" stroke="#434647" opacity="1" x="728" y="32"></rect><text font-family="IBM Plex Sans Medium, Arial, sans-serif" font-size="24" font-weight="500" text-anchor="middle" fill="#ffffff" opacity="1" x="856" y="101"><tspan dy="0" x="856">Bank system</tspan></text><g id="System" opacity="1"><text font-family="Courier New, monospace" font-size="12" text-anchor="middle" fill="#adb3b3" x="856" y="148.6552734375"><tspan dy="0" x="856">System</tspan></text></g></a><a href="https://app.icepanel.io/landscapes/pMzFyeYjGnWRGy8yUsah/versions/latest/model/objects?object=E50qU4J2wf&amp;focus=E50qU4J2wf" id="Staff office" target="_blank"><rect width="56" height="56" rx="8" ry="8" fill-opacity="0.8" fill="#1f2121" stroke-opacity="1" stroke-width="1" stroke="#434647" opacity="1" x="988" y="304"></rect><rect width="144" height="72" rx="8" ry="8" fill-opacity="0.8" fill="#1f2121" stroke-opacity="1" stroke-width="1" stroke="#434647" opacity="1" x="944" y="368"></rect><path d="M1016 333.7142857142857C1019.7875 333.7142857142857 1022.8571428571429 330.64464285714286 1022.8571428571429 326.85714285714283C1022.8571428571429 323.06964285714287 1019.7875 320 1016 320C1012.2125 320 1009.1428571428571 323.06964285714287 1009.1428571428571 326.85714285714283C1009.1428571428571 330.64464285714286 1012.2125 333.7142857142857 1016 333.7142857142857ZM1020.8 335.42857142857144L1019.9053571428572 335.42857142857144C1018.7160714285715 335.975 1017.3928571428571 336.2857142857143 1016 336.2857142857143C1014.6071428571429 336.2857142857143 1013.2892857142857 335.975 1012.0946428571428 335.42857142857144L1011.2 335.42857142857144C1007.225 335.42857142857144 1004 338.6535714285714 1004 342.62857142857143L1004 344.85714285714283C1004 346.2767857142857 1005.1517857142857 347.42857142857144 1006.5714285714286 347.42857142857144L1025.4285714285716 347.42857142857144C1026.8482142857142 347.42857142857144 1028 346.2767857142857 1028 344.85714285714283L1028 342.62857142857143C1028 338.6535714285714 1024.775 335.42857142857144 1020.8 335.42857142857144Z " fill="#ffffff" opacity="1"></path><text font-family="IBM Plex Sans Medium, Arial, sans-serif" font-size="24" font-weight="500" text-anchor="middle" fill="#ffffff" opacity="1" x="1016" y="404"><tspan dy="0" x="1016">Staff office</tspan></text><g id="Actor" opacity="1"><text font-family="Courier New, monospace" font-size="12" text-anchor="middle" fill="#adb3b3" x="1016" y="428.6552734375"><tspan dy="0" x="1016">Actor</tspan></text></g></a><g id="register"><polygon points="471.722776959907,335.6557828403365 463.722776959907,351.6557828403365 479.722776959907,351.6557828403365 471.722776959907,335.6557828403365" fill="#adb3b3" opacity="1" transform="matrix(-0.008635256610333705,0.999962715476569,-0.999962715476569,-0.008635256610333705,819.7167153024244,-60.80671518340773)"></polygon><circle r="4" fill="#adb3b3" opacity="1" cx="248" cy="360"></circle></g><g id="Connection"><circle r="4" fill="#adb3b3" opacity="1" cx="140" cy="392"></circle><circle r="4" fill="#adb3b3" opacity="1" cx="480" cy="440"></circle></g><g id="payment"><polygon points="720.2955756838064,24.372132983252953 712.2955756838064,40.37213298325295 728.2955756838064,40.37213298325295 720.2955756838064,24.372132983252953" fill="#adb3b3" opacity="1" transform="matrix(0.00926895840719704,0.9999570422823401,-0.9999570422823401,0.00926895840719704,745.6946962801442,-624.4905377167511)"></polygon><circle r="4" fill="#adb3b3" opacity="1" cx="608" cy="344"></circle></g><g id="Update transactions"><polygon points="608.0000000000001,264 600.0000000000001,280 616.0000000000001,280 608.0000000000001,264" fill="#adb3b3" opacity="1" transform="matrix(-1,1.2246467991473532e-16,-1.2246467991473532e-16,-1,1280,608)"></polygon><circle r="4" fill="#adb3b3" opacity="1" cx="856" cy="160"></circle></g><g id="access"><polygon points="680,400 672,416 688,416 680,400" fill="#adb3b3" opacity="1" transform="matrix(-1.8369701987210297e-16,-1,1,-1.8369701987210297e-16,336.0000000000001,1088)"></polygon><circle r="4" fill="#adb3b3" opacity="1" cx="944" cy="408"></circle></g></g></svg>